<?xml version="1.0" encoding="utf-8"?>
<!-- Generator: Adobe Illustrator 26.0.1, SVG Export Plug-In . SVG Version: 6.00 Build 0)  -->
<svg version="1.1" id="Lag_1" xmlns="http://www.w3.org/2000/svg" xmlns:xlink="http://www.w3.org/1999/xlink" x="0px" y="0px"
	 viewBox="0 0 16 16" style="enable-background:new 0 0 16 16;" xml:space="preserve">
<style type="text/css">
	.st0{fill:#CA3939;}
	.st1{fill:#FFFFFF;}
	.st2{fill:#D3C225;}
</style>
<path class="st0" d="M7.7,9c-0.2,0.5-0.5,1.2-1,2c-0.5,0.8-0.9,1.5-1.4,1.8c-1.6,1.1-4.2-0.3-4.6-0.5c0.3-0.6,0.9-1.5,1.7-2.4
	c0.4-0.4,0.7-0.7,1-1C4.9,7.9,7,8.7,7.7,9z"/>
<path class="st0" d="M8.1,7.7C7.7,8,6.9,8.3,6,8.6C5.1,8.9,4.4,9.1,3.8,9C1.8,8.8,0.8,6,0.7,5.6C1.4,5.4,2.3,5,3.6,4.9
	c0.5-0.1,1-0.1,1.4,0C6.7,5.1,7.8,7,8.1,7.7z"/>
<path class="st0" d="M8,7.7C7.6,7.3,7,6.8,6.4,6.1c-0.6-0.7-1.1-1.3-1.3-2C4.6,2.3,6.8,0.3,7.1,0c0.5,0.5,1.2,1.3,1.8,2.4
	c0.3,0.5,0.5,0.9,0.6,1.3C9.8,5.4,8.5,7.1,8,7.7z"/>
<path class="st0" d="M14.4,3.3c-0.5,0-1.3,0-2.3,0.1c-1,0.1-1.7,0.2-2.3,0.6C8.2,5,8.5,8,8.5,8.4c0.7,0,1.7-0.2,2.9-0.6
	c0.5-0.2,0.9-0.3,1.3-0.6C14.2,6.3,14.3,4.1,14.4,3.3z"/>
<path class="st0" d="M8.7,7.9C8.9,8.5,9.1,9.2,9.5,10c0.4,0.9,0.8,1.5,1.3,2c1.5,1.2,4.2,0,4.6-0.1c-0.3-0.7-0.7-1.6-1.5-2.6
	c-0.3-0.4-0.6-0.8-1-1.1C11.6,7.2,9.5,7.7,8.7,7.9z"/>
<path class="st0" d="M7.7,8.4c-0.3,0.4-0.7,1.1-1.1,2C6.3,11.2,6,11.9,6,12.6C6,14.5,8.7,15.8,9,16c0.3-0.6,0.7-1.6,1-2.8
	c0.1-0.5,0.2-1,0.2-1.4C10.1,10,8.4,8.8,7.7,8.4z"/>
<path class="st1" d="M4.9,6.8C5.1,6.9,5.5,7,6,7c0.5,0,0.7,0,1-0.1c0.4-0.2,0.4-0.8,0.5-1.4c0-0.4,0-0.7,0-0.9
	c0.1,0.2,0.2,0.4,0.3,0.7c0.3,0.5,0.6,1,1.2,1.1c0.4,0.1,0.8-0.1,1.4-0.4c0.4-0.2,0.7-0.4,0.9-0.5c-0.2,0.3-0.4,0.6-0.6,0.7
	c-0.3,0.4-0.4,0.5-0.5,0.7c0,0-0.1,0.4,0,0.9c0.3,1.2,1.8,1.6,1.9,1.6c-0.3-0.1-1.6-0.4-2.5,0.3c-0.6,0.4-0.8,1.1-1.1,1.7
	c-0.2,0.5-0.3,0.9-0.4,1.3c0-0.3,0-0.7-0.2-1.2c-0.2-0.6-0.3-1.1-0.7-1.4c-0.5-0.4-1.5-0.3-2.3,0.1c0.2-0.2,0.4-0.4,0.7-0.8
	c0.3-0.4,0.5-0.6,0.5-0.8C6.3,7.8,5,6.9,4.9,6.8z"/>
<circle class="st2" cx="8.3" cy="8.3" r="1.4"/>
</svg>
